# xmcd
#
# Track frame offsets:
#	150
#	15630
#	29563
#	39964
#	51727
#	71017
#	89368
#	98600
#	113163
#	137135
#	150300
#	162851
#	177900
#	194022
#	210098
#	225716
#	237241
#	247484
#	259567
#	272438
#
# Disc length: 3790 seconds
#
# Revision: 0
# Processed by: cddbd v1.5.2PL0 Copyright (c) Steve Scherf et al.
# Submitted via: EZCDAudioConverter 1.0.4.1
#
DISCID=110ecc14
DTITLE=Various Artist - Hard To Explain - More Shattered Dreams: Funky Blues 
DTITLE=1968-1984
DYEAR=2014
DGENRE=Blues
TTITLE0=Freddy Robinson - The Creeper
TTITLE1=Artie White - Gimme Some Of Your (I'll Give You Some Of Mine)
TTITLE2=Larry Davis - You Upset Me Baby
TTITLE3=Finis Tasby - Walk On
TTITLE4=Obrey Wilson - Getting Down With You
TTITLE5=Ray Agee - It's Hard To Explain
TTITLE6=Memphis Soul - Don't Down Me People (Pt. 1)
TTITLE7=Lowell Fulsom - Lovemaker
TTITLE8=Albert King - Cold Sweat
TTITLE9=Smokey Wilson - I Want You
TTITLE10=Ice Water Slim and The Fourth Floor - I Don't Understand It
TTITLE11=Smokey Wilson - Go Go Train
TTITLE12=Big Daddy Rucker - He Made You Mine
TTITLE13=Finis Tasby - Find Something Else To Do
TTITLE14=Adolph Jacobs - Gettin' Down With The Game
TTITLE15=Jimmy McCracklin - I Finally Got You
TTITLE16=Earl Wright - Them Love Blues
TTITLE17=Tommy Youngblood - Hey Little Girl
TTITLE18=Shakey Jake Harris - Sister Rose
TTITLE19=Jimmy Robins - It's Real (Pt. 1)
EXTD=
EXTT0=
EXTT1=
EXTT2=
EXTT3=
EXTT4=
EXTT5=
EXTT6=
EXTT7=
EXTT8=
EXTT9=
EXTT10=
EXTT11=
EXTT12=
EXTT13=
EXTT14=
EXTT15=
EXTT16=
EXTT17=
EXTT18=
EXTT19=
PLAYORDER=
